<svg id="Слой_1" data-name="Слой 1" xmlns="http://www.w3.org/2000/svg" viewBox="0 0 255.12 141.73">
  <defs>
    <style>
      .cls-1 {
        fill: #f0cea0;
      }

      .cls-2 {
        fill: none;
        stroke: #f0cea0;
        stroke-miterlimit: 10;
        stroke-width: 0.45px;
      }

      .cls-3 {
        fill: #122;
      }
    </style>
  </defs>
  <g>
    <path class="cls-1" d="M81.16,66.39A4.22,4.22,0,0,1,82,63.9a2.54,2.54,0,0,1,2.14-1.14,2.33,2.33,0,0,1,1.75.78,2.49,2.49,0,0,1,.75,1.78c0,1.69-.75,2.53-2.24,2.53a3.87,3.87,0,0,1-1.22-.22q1.29,4.88,11,4.87,9,0,19-9.19,3.9-3.54,17.33-19.21,10.68-12.43,17.86-16.72a20.16,20.16,0,0,0-8.55-5.95,27.91,27.91,0,0,0-10.3-1.94,48,48,0,0,0-15.54,3A47.23,47.23,0,0,0,98.49,31q-7,6.11-7,13.3A7.58,7.58,0,0,0,95,50.81a12.8,12.8,0,0,0,7.36,2.09q7.4,0,16.17-5.33,9.73-6,9.73-12.86A4.88,4.88,0,0,0,126,30.39a8.56,8.56,0,0,0-4.83-1.26Q110.6,29.13,98,44.45a33.59,33.59,0,0,1-2.53,3L95.05,47q2.11-5.88,10.86-12.28T121,28.27a10,10,0,0,1,5.65,1.49,5.72,5.72,0,0,1,2.57,5q0,8-9.38,13.91A31.25,31.25,0,0,1,103,53.88a16.27,16.27,0,0,1-8.52-2.08,8,8,0,0,1-4.2-7.29q0-11.23,14.5-19.12,12.39-6.78,24.67-6.77,12.47,0,19.6,8.18,1.83-1.11,5.73-3.24c3.13-1.68,4.94-2.53,5.43-2.53.33,0,.52.19.6.56l-.19.34a115.52,115.52,0,0,0-11,5.69,16.17,16.17,0,0,1,2.49,7.77A12.74,12.74,0,0,1,148.8,44a10.58,10.58,0,0,1-8.15,4,3.54,3.54,0,0,1-2.38-.88,2.73,2.73,0,0,1-1-2.21c0-1.29,1-2.83,3-4.61s3.7-2.67,5-2.65l.3.49-.3.48q-6.88,2.79-6.88,6.36c0,.92.39,1.38,1.19,1.38q3.75,0,7.36-4.91c2.28-3.1,3.43-5.95,3.43-8.56a8.61,8.61,0,0,0-1.53-4.68,27.86,27.86,0,0,0-6.32,5.94q-.37.45-5.17,7.07-8.4,11.59-11.3,15a56.91,56.91,0,0,1-13.55,12.16,34.3,34.3,0,0,1-18,5A24,24,0,0,1,86.29,72Q81.16,70.19,81.16,66.39Z"/>
    <path class="cls-1" d="M144.83,81.56A13.75,13.75,0,0,0,152,79a27.31,27.31,0,0,0,5.45-5.34c1.57-2,3.16-4.09,4.75-6.13l.38-.19.44.38a28.38,28.38,0,0,1-3,4.18,39.78,39.78,0,0,1-6.8,7.22,15.87,15.87,0,0,1-9.08,3.51q-16.49,27-37.79,27a16.61,16.61,0,0,1-7.06-1.38c-2.6-1.23-3.89-3.06-3.89-5.5a4.27,4.27,0,0,1,1-2.78A3.08,3.08,0,0,1,99,98.79a1.93,1.93,0,0,1,2.15,1.66,2,2,0,0,1,0,.54,2.12,2.12,0,0,1-1.78,2.4,2.25,2.25,0,0,1-.58,0,2.17,2.17,0,0,1-1.53-.79,2.29,2.29,0,0,0-.23,1q0,2.81,3.52,4.11a17.24,17.24,0,0,0,6,.93,28,28,0,0,0,20.29-8.41q4.77-4.73,13.2-18.44-6.27-2.21-6.28-7.93,0-10,14.06-16.33a55.05,55.05,0,0,1,22.76-5.12c2.86,0,4.42.23,4.67.67l-.22.3q-11.22,3.78-18.06,10.8Q152.12,69.11,144.83,81.56Zm-4.3-.67q7.71-11,13.76-16.63a49.44,49.44,0,0,1,18.31-11,57.58,57.58,0,0,0-18.8,3.18Q143.48,60.07,138.18,67c-2.17,2.79-3.26,5.48-3.25,8.07a5,5,0,0,0,1.9,3.7A9.33,9.33,0,0,0,140.53,80.89Z"/>
    <rect class="cls-2" x="74.22" y="10.72" width="106.68" height="106.68"/>
    <rect class="cls-3" x="66.31" y="109.49" width="15.82" height="15.82"/>
    <g>
      <path class="cls-1" d="M76.75,131.33v4.59h-.82V124.53h2.94a4.54,4.54,0,0,1,3,.88,3.11,3.11,0,0,1,1,2.5,3.28,3.28,0,0,1-.28,1.38,2.85,2.85,0,0,1-.8,1.08,3.62,3.62,0,0,1-1.27.71,5.13,5.13,0,0,1-1.69.25Zm0-.66h2.12a3.85,3.85,0,0,0,1.35-.21,3,3,0,0,0,1-.58,2.37,2.37,0,0,0,.64-.87,2.77,2.77,0,0,0,.22-1.1,2.56,2.56,0,0,0-.81-2,3.59,3.59,0,0,0-2.41-.71H76.75Z"/>
      <path class="cls-1" d="M95.4,130.22a7,7,0,0,1-.39,2.4,5.29,5.29,0,0,1-1.11,1.83,5,5,0,0,1-1.72,1.18,6.1,6.1,0,0,1-4.41,0,5,5,0,0,1-1.71-1.18,5.47,5.47,0,0,1-1.12-1.83,7.41,7.41,0,0,1,0-4.79A5.47,5.47,0,0,1,86.06,126a5,5,0,0,1,1.71-1.18,6,6,0,0,1,4.41,0A4.85,4.85,0,0,1,93.9,126a5.27,5.27,0,0,1,1.1,1.83A7,7,0,0,1,95.4,130.22Zm-.85,0a6.47,6.47,0,0,0-.33-2.14,4.65,4.65,0,0,0-.93-1.61,3.9,3.9,0,0,0-1.44-1,4.86,4.86,0,0,0-1.88-.35,4.73,4.73,0,0,0-1.86.35,4.06,4.06,0,0,0-1.45,1,4.84,4.84,0,0,0-.94,1.61,7.14,7.14,0,0,0,0,4.29,4.79,4.79,0,0,0,.94,1.6,3.93,3.93,0,0,0,1.45,1,4.73,4.73,0,0,0,1.86.35,4.86,4.86,0,0,0,1.88-.35,3.9,3.9,0,0,0,1.44-1,4.52,4.52,0,0,0,.93-1.6A6.53,6.53,0,0,0,94.55,130.22Z"/>
      <path class="cls-1" d="M98.91,135.22h5.4v.7H98.09V124.53h.82Z"/>
      <path class="cls-1" d="M107.45,135.92h-.83V124.53h.83Z"/>
      <path class="cls-1" d="M111.72,124.56a.49.49,0,0,1,.13.12l7.38,9.87a3.53,3.53,0,0,1,0-.46v-9.56H120v11.39h-.4a.34.34,0,0,1-.29-.16l-7.41-9.88v10h-.71V124.53h.4A.47.47,0,0,1,111.72,124.56Z"/>
      <path class="cls-1" d="M121.74,124.53h.65a.31.31,0,0,1,.19.06.36.36,0,0,1,.11.16l3.88,9.45a7.24,7.24,0,0,1,.25.79,5.48,5.48,0,0,1,.23-.79l3.88-9.45a.36.36,0,0,1,.11-.16.33.33,0,0,1,.19-.06h.65l-4.71,11.39h-.73Z"/>
      <path class="cls-1" d="M140.51,124.53v.68h-6v4.61h5v.67h-5v4.75h6v.68h-6.82V124.53Z"/>
      <path class="cls-1" d="M148.72,125.92a.23.23,0,0,1-.21.13.49.49,0,0,1-.27-.15,3.72,3.72,0,0,0-.45-.33,3.06,3.06,0,0,0-.71-.33,3.37,3.37,0,0,0-1-.15,3.16,3.16,0,0,0-1.1.17,2.33,2.33,0,0,0-.79.49,2.08,2.08,0,0,0-.48.7,2.26,2.26,0,0,0-.17.85,1.68,1.68,0,0,0,.25,1,2.2,2.2,0,0,0,.65.64,3.86,3.86,0,0,0,.91.45l1.05.36c.36.12.71.25,1.06.39a3.61,3.61,0,0,1,.91.53,2.38,2.38,0,0,1,.9,2A3.92,3.92,0,0,1,149,134a3.16,3.16,0,0,1-.71,1.09,3.12,3.12,0,0,1-1.15.74,4,4,0,0,1-1.54.27,4.33,4.33,0,0,1-1.94-.4,4.77,4.77,0,0,1-1.43-1.09l.23-.35a.27.27,0,0,1,.22-.12.34.34,0,0,1,.19.09l.27.24a4.08,4.08,0,0,0,.39.31,2.7,2.7,0,0,0,.52.3,2.82,2.82,0,0,0,.69.24,3.71,3.71,0,0,0,.88.1,3.15,3.15,0,0,0,1.21-.21,2.48,2.48,0,0,0,.9-.56,2.26,2.26,0,0,0,.56-.84,2.65,2.65,0,0,0,.19-1,1.76,1.76,0,0,0-.25-1,2.09,2.09,0,0,0-.64-.65,4.57,4.57,0,0,0-.92-.44l-1-.34a8.75,8.75,0,0,1-1-.38,3.7,3.7,0,0,1-.92-.54,2.56,2.56,0,0,1-.65-.81,2.83,2.83,0,0,1-.24-1.22,3,3,0,0,1,.21-1.1,2.86,2.86,0,0,1,.64-.94,3.14,3.14,0,0,1,1-.65,3.73,3.73,0,0,1,1.4-.25,4.35,4.35,0,0,1,1.6.28,3.85,3.85,0,0,1,1.28.86Z"/>
      <path class="cls-1" d="M159.06,124.53v.7h-4v10.69h-.82V125.23h-4v-.7Z"/>
      <path class="cls-1" d="M167.29,124.4a4.08,4.08,0,0,1,1.25.19,3.21,3.21,0,0,1,1,.57,2.82,2.82,0,0,1,.71,1,3.14,3.14,0,0,1,.27,1.35,3.26,3.26,0,0,1-.2,1.2,5.17,5.17,0,0,1-.53,1,8.47,8.47,0,0,1-.79,1l-.93,1-3.57,3.64a3.1,3.1,0,0,1,.53-.1h5.48a.27.27,0,0,1,.21.07.3.3,0,0,1,.08.2V136h-7.36v-.27a.41.41,0,0,1,.05-.18.36.36,0,0,1,.11-.16l3.89-3.94a9.35,9.35,0,0,0,.89-1,7.78,7.78,0,0,0,.71-.92,4.6,4.6,0,0,0,.48-1,3.09,3.09,0,0,0,.17-1,2.55,2.55,0,0,0-.21-1.09,2.16,2.16,0,0,0-1.36-1.2,3.21,3.21,0,0,0-2,0,2.5,2.5,0,0,0-.81.46,2.61,2.61,0,0,0-.58.7,3.16,3.16,0,0,0-.32.89.32.32,0,0,1-.32.28h-.08l-.38-.06a3.75,3.75,0,0,1,.39-1.31,3.4,3.4,0,0,1,.76-1,3.14,3.14,0,0,1,1.07-.6A4.15,4.15,0,0,1,167.29,124.4Z"/>
      <path class="cls-1" d="M180.54,130.22a9.14,9.14,0,0,1-.33,2.6,5.51,5.51,0,0,1-.87,1.81,3.57,3.57,0,0,1-2.89,1.41,3.51,3.51,0,0,1-1.59-.35,3.62,3.62,0,0,1-1.3-1.06,5.51,5.51,0,0,1-.87-1.81,10.68,10.68,0,0,1,0-5.19,5.32,5.32,0,0,1,.87-1.81,3.65,3.65,0,0,1,1.3-1.07,3.79,3.79,0,0,1,3.18,0,3.65,3.65,0,0,1,1.3,1.07,5.32,5.32,0,0,1,.87,1.81A8.73,8.73,0,0,1,180.54,130.22Zm-.81,0a9.39,9.39,0,0,0-.26-2.36,5,5,0,0,0-.72-1.61,2.68,2.68,0,0,0-1-.92,3,3,0,0,0-2.52,0,2.82,2.82,0,0,0-1,.92,5,5,0,0,0-.71,1.61,10.49,10.49,0,0,0,0,4.73,5,5,0,0,0,.71,1.61,2.79,2.79,0,0,0,1,.91,3,3,0,0,0,2.52,0,2.73,2.73,0,0,0,1-.91,5,5,0,0,0,.72-1.61A9.47,9.47,0,0,0,179.73,130.22Z"/>
    </g>
    <rect class="cls-3" x="172.99" y="2.81" width="15.82" height="15.82"/>
  </g>
</svg>
